<?xml version="1.0" encoding="UTF-8"?>
<svg width="40px" height="40px" viewBox="0 0 40 40" version="1.1" xmlns="http://www.w3.org/2000/svg" xmlns:xlink="http://www.w3.org/1999/xlink">
    <!-- Generator: Sketch 44.1 (41455) - http://www.bohemiancoding.com/sketch -->
    <title>Ikon_OBS2 Copy 2</title>
    <desc>Created with Sketch.</desc>
    <defs></defs>
    <g id="Symbols" stroke="none" stroke-width="1" fill="none" fill-rule="evenodd">
        <g id="Ikon_OBS2-Copy-2" fill="#FFFFFF">
            <path d="M14.7299995,27.2317732 C21.2134902,27.2317732 26.4599991,22.036304 26.4599991,15.6158866 C26.4599991,9.19546929 21.2134902,4 14.7299995,4 C8.24650889,4 3,9.19546929 3,15.6158866 C3,22.036304 8.24650889,27.2317732 14.7299995,27.2317732 Z M6.10687681,15.6943275 C6.10687681,11.0288042 9.93943128,7.233534 14.650788,7.233534 C19.3621448,7.233534 23.1946993,11.0288042 23.1946993,15.6943275 C23.1946993,20.3598508 19.3621448,24.1551211 14.650788,24.1551211 C9.93943128,24.1551211 6.10687681,20.3598508 6.10687681,15.6943275 L6.10687681,15.6943275 Z" id="Shape"></path>
            <rect id="Rectangle-3" transform="translate(29.703844, 31.213861) rotate(-45.000000) translate(-29.703844, -31.213861) " x="27.7038436" y="22.7138606" width="4" height="17" rx="2"></rect>
        </g>
    </g>
</svg>